<svg width="192" height="36" viewBox="0 0 192 36" fill="none" xmlns="http://www.w3.org/2000/svg">
<g clip-path="url(#clip0_115_1027)">
<path d="M23.2108 7.06505C22.2924 5.49599 20.9148 4.261 19.0802 3.3644C17.2435 2.46779 15.0212 2.01733 12.4133 2.01733H0V20.5637C0.751599 19.5723 2.10534 17.7252 2.67717 16.5807C2.70749 16.3328 2.74215 16.0893 2.7833 15.8436C2.97607 14.6927 3.29447 13.5784 3.79698 12.5223C4.0764 11.9339 4.40346 11.3756 4.81067 10.8648C4.90381 10.7441 4.98178 10.6127 5.06626 10.4855C5.07709 10.4769 5.09008 10.4683 5.10091 10.4596C5.23953 10.3131 5.38032 10.1644 5.51895 10.0178C5.9998 9.50916 6.53913 9.06517 7.12611 8.68799C7.66761 8.33667 8.2416 8.03493 8.84591 7.80216C9.095 7.70733 9.34192 7.60603 9.58884 7.50904C9.617 7.50257 9.64733 7.49611 9.67765 7.48964C9.96789 7.41421 10.2581 7.33015 10.5527 7.26333C11.339 7.08444 12.1317 6.95297 12.9375 6.91849C13.1779 6.90771 13.4183 6.88831 13.6587 6.87107C13.6891 6.86891 13.7172 6.86676 13.7476 6.8646C14.053 6.87322 14.3605 6.87969 14.6659 6.88831C14.8197 6.89047 14.9713 6.89262 15.1251 6.89262H15.2161C15.5367 6.96159 15.8659 6.95513 16.193 6.99392C16.6262 7.04565 17.0572 7.10169 17.4882 7.17066C17.5489 7.18143 17.6117 7.18143 17.6723 7.1879C17.6897 7.1879 17.7048 7.19005 17.7221 7.19005C17.9821 7.29351 18.2615 7.3086 18.5322 7.36679C19.4701 7.57585 20.3971 7.81725 21.3155 8.1233C21.2657 8.19658 21.1986 8.22675 21.1314 8.26339C20.8455 8.41642 20.5661 8.57591 20.3343 8.80437C20.3257 8.80653 20.3192 8.80869 20.3127 8.81515C20.0441 8.97895 19.8253 9.20526 19.6022 9.42295C18.9134 10.0954 18.3243 10.8498 17.7741 11.6364C17.4731 12.0697 17.172 12.5029 16.8687 12.9361C16.8406 12.977 16.8016 13.0094 16.8016 13.0654C16.8016 13.0676 16.8016 13.0676 16.8016 13.0697C16.6305 13.2637 16.4854 13.4728 16.3706 13.7034C16.2861 13.7573 16.2514 13.8499 16.2059 13.9318L16.2038 13.934C15.9764 14.2422 15.7511 14.5526 15.5237 14.8608C14.7829 15.8716 13.9771 16.8242 12.9981 17.6196C12.0537 18.3868 10.9946 18.9364 9.79462 19.2015C9.19464 19.333 8.59032 19.4063 7.97518 19.3977C7.93619 19.3977 7.89504 19.4063 7.85389 19.4128C7.83223 19.4128 7.81273 19.4128 7.79107 19.4149C7.44018 19.3761 7.08712 19.3675 6.73623 19.3222C5.98463 19.2274 5.24603 19.0679 4.52259 18.8459C4.15004 18.7317 3.77749 18.6131 3.4136 18.4752C3.22949 18.4041 3.22083 18.3825 3.36162 18.2532C3.73634 17.9041 4.11105 17.5527 4.4836 17.2036C4.5031 17.1863 4.51176 17.1626 4.52692 17.1411C4.63306 17.1044 4.68721 17.0139 4.75435 16.9363L4.75868 16.9342C5.05326 16.6798 5.35 16.4277 5.64024 16.169C6.10376 15.7574 6.58028 15.3586 7.0568 14.9621C7.65245 14.4663 8.26759 13.9922 8.8914 13.5331C9.81844 12.8499 10.7715 12.2076 11.7635 11.6192C12.4848 11.1924 13.2234 10.7959 13.9728 10.4252C14.2501 10.2894 14.5316 10.1665 14.8132 10.0372C14.85 10.02 14.8955 10.0178 14.9107 9.97255C14.9194 9.97255 14.928 9.97039 14.9345 9.96392C15.3114 9.81521 15.6883 9.66434 16.0652 9.51778C16.3684 9.39924 16.6716 9.28716 16.9727 9.16646C16.4832 9.22035 16.0023 9.32596 15.5258 9.4445C14.6334 9.66865 13.7627 9.96177 12.9093 10.3066C11.9866 10.6773 11.092 11.1019 10.2213 11.5761C9.46322 11.9899 8.72028 12.4296 8.0055 12.9124C7.44668 13.2896 6.89652 13.6754 6.35935 14.0805C6.33336 14.0999 6.30737 14.115 6.30087 14.1495C6.18607 14.1797 6.11459 14.2724 6.02579 14.3413C5.58826 14.6776 5.15939 15.0246 4.75002 15.3953C4.72403 15.419 4.70237 15.447 4.67854 15.4729C4.66122 15.488 4.64172 15.503 4.62439 15.5181C4.34281 15.7337 4.08939 15.9794 3.83381 16.2251C3.56522 16.4837 3.28148 16.7294 3.04539 17.0182C2.88077 17.1325 2.77247 17.3027 2.60569 17.4428C2.14433 18.1217 0.742935 20.1822 0 21.1004V35.5667H6.76223V22.6867H12.4133C15.1836 22.6867 17.4774 22.206 19.2968 21.2448C21.1163 20.2835 22.4527 19.0162 23.3061 17.4471C24.1595 15.8781 24.5862 14.1948 24.5862 12.3994C24.5862 10.4144 24.127 8.63411 23.2108 7.06505Z" fill="white"/>
<path d="M27.4343 0V35.5668H34.1966V0H27.4343Z" fill="white"/>
<path d="M58.2521 8.94017V12.7357C57.351 11.5201 56.1511 10.5092 54.6544 9.70961C53.1555 8.90784 51.4097 8.50696 49.4127 8.50696C47.1254 8.50696 45.0569 9.06734 43.2071 10.1881C41.353 11.311 39.8888 12.9124 38.8101 14.9944C37.7315 17.0786 37.1921 19.4645 37.1921 22.1565C37.1921 24.8808 37.7315 27.2926 38.8101 29.3918C39.8888 31.4889 41.353 33.1162 43.2071 34.2693C45.0569 35.4223 47.1102 36 49.365 36C51.3599 36 53.123 35.5905 54.6544 34.7736C56.1836 33.9567 57.3835 32.9244 58.2521 31.6743V35.5668H65.0641V8.94017H58.2521ZM57.286 26.4585C56.6406 27.6288 55.772 28.5254 54.6782 29.1504C53.5822 29.7755 52.4082 30.088 51.152 30.088C49.9282 30.088 48.7759 29.7668 47.6972 29.1267C46.6185 28.4866 45.75 27.5641 45.0893 26.3636C44.4287 25.161 44.0995 23.76 44.0995 22.1565C44.0995 20.5551 44.4287 19.1692 45.0893 17.9989C45.75 16.8307 46.612 15.9406 47.6734 15.3328C48.7369 14.7228 49.8957 14.4189 51.152 14.4189C52.4082 14.4189 53.5822 14.7315 54.6782 15.3565C55.772 15.9815 56.6406 16.8781 57.286 18.0485C57.9293 19.2188 58.2521 20.6197 58.2521 22.2535C58.2521 23.8872 57.9293 25.2903 57.286 26.4585Z" fill="white"/>
<path d="M93.2719 11.5589C91.3074 9.55666 88.7299 8.55444 85.5437 8.55444C83.8694 8.55444 82.3315 8.8842 80.9301 9.54157C79.5287 10.1968 78.3786 11.102 77.4775 12.2551V8.94024H70.7131V35.5668H77.4775V20.8591C77.4775 18.7447 78.0147 17.1196 79.0955 15.9816C80.172 14.8436 81.6471 14.2746 83.5141 14.2746C85.3487 14.2746 86.7978 14.8436 87.8613 15.9816C88.9248 17.1196 89.4555 18.7447 89.4555 20.8591V35.5668H96.2177V19.9474C96.2177 16.3588 95.2343 13.5612 93.2719 11.5589Z" fill="white"/>
<path d="M114.572 14.4663V8.94015H108.583V2.35571H101.773V8.94015H98.585V14.4663H101.773V27.3012C101.773 32.8123 104.622 35.5667 110.322 35.5667H114.572V29.8961H111.434C110.403 29.8961 109.671 29.6957 109.235 29.2948C108.8 28.8939 108.583 28.2452 108.583 27.3486V14.4663H114.572Z" fill="white"/>
<path d="M143.36 21.6758C143.36 19.0809 142.804 16.7833 141.695 14.7789C140.584 12.7766 139.02 11.2313 137.007 10.1407C134.995 9.05225 132.717 8.50696 130.174 8.50696C127.533 8.50696 125.198 9.06734 123.169 10.1881C121.142 11.311 119.563 12.9124 118.436 14.9944C117.308 17.0786 116.745 19.499 116.745 22.2535C116.745 24.9778 117.316 27.3809 118.46 29.4629C119.602 31.5471 121.196 33.1571 123.243 34.293C125.287 35.431 127.596 36 130.174 36C133.362 36 136.05 35.1745 138.24 33.5235C140.43 31.8747 141.911 29.7668 142.685 27.2042H135.389C134.328 29.3509 132.541 30.4242 130.029 30.4242C128.289 30.4242 126.823 29.8789 125.634 28.7905C124.44 27.6999 123.765 26.1955 123.604 24.2708H143.168C143.295 23.5035 143.36 22.6371 143.36 21.6758ZM123.652 19.7533C123.91 17.9601 124.609 16.557 125.753 15.5483C126.897 14.5396 128.305 14.0353 129.981 14.0353C131.751 14.0353 133.247 14.5547 134.473 15.5957C135.695 16.6389 136.323 18.0226 136.356 19.7533H123.652Z" fill="white"/>
<path d="M157.487 9.7571C156.088 10.5589 154.953 11.6624 154.082 13.0741V8.94024H147.32V35.5668H154.082V22.3009C154.082 19.8353 154.621 18.1046 155.7 17.111C156.779 16.1174 158.382 15.6195 160.506 15.6195H162.293V8.55444C160.489 8.55444 158.888 8.95533 157.487 9.7571Z" fill="white"/>
<path d="M185.188 8.94017V12.7357C184.287 11.5201 183.087 10.5092 181.59 9.70961C180.093 8.90784 178.345 8.50696 176.348 8.50696C174.063 8.50696 171.995 9.06734 170.143 10.1881C168.291 11.311 166.827 12.9124 165.746 14.9944C164.667 17.0786 164.128 19.4645 164.128 22.1565C164.128 24.8808 164.667 27.2926 165.746 29.3918C166.827 31.4889 168.291 33.1162 170.143 34.2693C171.995 35.4223 174.046 36 176.301 36C178.298 36 180.061 35.5905 181.59 34.7736C183.119 33.9567 184.319 32.9244 185.188 31.6743V35.5668H192V8.94017H185.188ZM184.222 26.4585C183.579 27.6288 182.71 28.5254 181.614 29.1504C180.52 29.7755 179.344 30.088 178.088 30.088C176.864 30.088 175.714 29.7668 174.635 29.1267C173.556 28.4866 172.686 27.5641 172.027 26.3636C171.367 25.161 171.035 23.76 171.035 22.1565C171.035 20.5551 171.367 19.1692 172.027 17.9989C172.686 16.8307 173.548 15.9406 174.611 15.3328C175.673 14.7228 176.831 14.4189 178.088 14.4189C179.344 14.4189 180.52 14.7315 181.614 15.3565C182.71 15.9815 183.579 16.8781 184.222 18.0485C184.867 19.2188 185.188 20.6197 185.188 22.2535C185.188 23.8872 184.867 25.2903 184.222 26.4585Z" fill="white"/>
</g>
<defs>
<clipPath id="clip0_115_1027">
<rect width="192" height="36" fill="white"/>
</clipPath>
</defs>
</svg>
